<?xml version="1.0" encoding="utf-8"?>
<svg xmlns="http://www.w3.org/2000/svg" height="512pt" version="1.1" viewBox="0 0 512 512"
    width="512pt">
    <path
        d="M 99.06 0.00 C 138.36 -0.51 177.67 -0.08 216.98 -0.25 C 273.99 -0.24 331.01 -0.24 388.02 -0.26 C 400.56 -0.13 413.21 -0.58 425.61 1.60 C 431.74 3.02 437.82 4.68 443.80 6.63 C 465.02 14.07 483.14 29.11 495.56 47.72 C 505.74 63.35 511.21 81.77 512.00 100.35 L 512.00 409.42 C 512.12 430.82 504.81 452.01 491.98 469.08 C 485.62 476.74 479.16 484.51 470.99 490.34 C 452.80 504.46 429.74 511.42 406.87 512.00 C 313.25 512.17 219.63 512.03 126.01 512.08 C 114.00 511.98 101.90 512.52 89.98 510.67 C 67.62 507.67 46.05 497.38 30.50 480.90 C 11.16 462.47 0.31 435.88 0.00 409.27 L 0.00 104.37 C 0.57 97.62 0.61 90.80 2.10 84.16 C 5.33 68.86 11.51 53.97 21.19 41.60 C 28.23 32.36 36.52 23.88 46.44 17.72 C 61.93 7.14 80.47 1.52 99.06 0.00 Z"
        fill="#090909" opacity="1.00" stroke="#090909" stroke-width="0.25" />
    <path
        d="M 80.71 110.44 C 80.62 98.00 92.59 88.31 104.51 88.11 C 130.16 87.97 155.82 88.10 181.47 88.01 C 187.23 87.85 193.36 89.27 197.59 93.41 C 202.76 98.06 201.63 106.49 207.15 110.88 C 211.48 115.02 217.78 116.01 223.54 116.10 C 267.86 116.20 312.18 116.08 356.50 116.19 C 368.47 115.87 380.11 126.31 379.82 138.51 C 379.94 150.68 379.86 162.85 379.90 175.02 C 347.42 175.10 314.94 175.12 282.46 175.01 C 275.49 175.61 268.79 171.45 265.01 165.79 C 262.32 160.69 261.86 153.99 256.76 150.45 C 251.92 147.52 246.22 145.90 240.55 146.02 C 214.19 146.11 187.82 145.96 161.46 145.96 C 149.75 145.97 138.60 155.58 137.87 167.44 C 137.83 220.45 137.86 273.47 137.82 326.48 C 137.79 328.80 137.60 331.11 137.41 333.43 C 124.45 333.09 111.48 333.64 98.53 333.11 C 88.77 331.08 80.51 321.71 80.80 311.54 C 80.78 244.51 80.96 177.47 80.71 110.44 Z"
        fill="#222227" opacity="1.00" stroke="#222227" stroke-width="0.25" />
    <path
        d="M 137.87 167.44 C 138.60 155.58 149.75 145.97 161.46 145.96 C 187.82 145.96 214.19 146.11 240.55 146.02 C 246.22 145.90 251.92 147.52 256.76 150.45 C 261.86 153.99 262.32 160.69 265.01 165.79 C 268.79 171.45 275.49 175.61 282.46 175.01 C 314.94 175.12 347.42 175.10 379.90 175.02 C 391.76 174.84 403.63 175.01 415.50 174.95 C 427.94 174.67 439.67 185.91 439.22 198.50 C 439.26 256.15 439.23 313.80 439.24 371.45 C 439.49 378.99 434.61 385.53 428.99 390.06 C 425.71 392.48 421.66 393.99 417.56 394.00 C 331.54 394.12 245.53 393.97 159.51 394.07 C 151.74 393.75 144.95 388.34 140.77 382.08 C 136.06 374.75 137.48 365.75 137.28 357.51 C 137.40 349.49 137.03 341.45 137.41 333.43 C 137.60 331.11 137.79 328.80 137.82 326.48 C 137.86 273.47 137.83 220.45 137.87 167.44 Z"
        fill="#002078" opacity="1.00" stroke="#002078" stroke-width="0.25" />
</svg>
